<svg width="200" height="200" viewBox="0 0 200 200" fill="none" xmlns="http://www.w3.org/2000/svg">
      <path fill="white"  d="M172.1,65.2c-0.7-1.6-1.7-3.1-2.9-4.4c-1.3-1.3-2.7-2.2-4.4-2.9c-1.6-0.7-3.3-1-5.1-1c0,0-0.1,0-0.1,0h-9.4
		v-5.1c0-1.8-0.4-3.6-1-5.2c-0.7-1.6-1.7-3.1-2.9-4.4c-1.3-1.3-2.7-2.2-4.4-2.9c-1.6-0.7-3.4-1-5.2-1H40.3c-1.8,0-3.5,0.3-5.2,1
		S32,41,30.8,42.2c-1.3,1.3-2.3,2.8-2.9,4.4c-0.7,1.6-1,3.4-1,5.2v61.8c0,1.8,0.4,3.5,1,5.2c0.7,1.6,1.7,3.1,2.9,4.4
		c1.3,1.3,2.7,2.2,4.4,2.9c1.6,0.7,3.4,1,5.2,1h14.2v23.2l21.3-23.2H87v5.1c0,1.8,0.4,3.5,1,5.2c0.7,1.6,1.7,3.1,2.9,4.4
		c1.3,1.3,2.7,2.2,4.4,2.9c1.6,0.7,3.3,1,5.1,1c0,0,0.1,0,0.1,0h23.5l21.3,23.2v-23.2h14.2c0,0,0.1,0,0.1,0c1.7,0,3.5-0.3,5.1-1
		c1.6-0.7,3.1-1.7,4.4-2.9c1.3-1.3,2.3-2.7,2.9-4.4c0.7-1.6,1-3.4,1-5.2V70.4C173.2,68.6,172.8,66.9,172.1,65.2z M64.2,84.3
		c-0.3,1.7-1.2,3.3-2.4,4.5c-1.2,1.2-2.8,2.1-4.4,2.4c-1.7,0.3-3.4,0.2-5-0.5c-1.6-0.7-2.9-1.8-3.9-3.2c-1-1.4-1.5-3.1-1.5-4.9
		c0-2.3,0.9-4.5,2.5-6.2c1.6-1.6,3.8-2.6,6.1-2.6c1.7,0,3.4,0.5,4.8,1.5c1.4,1,2.5,2.3,3.2,3.9C64.3,80.9,64.5,82.6,64.2,84.3z
		 M130,84.3c-0.3,1.7-1.2,3.3-2.4,4.5c-1.2,1.2-2.8,2.1-4.4,2.4c-1.7,0.3-3.4,0.2-5-0.5c-1.6-0.7-2.9-1.8-3.9-3.2
		c-1-1.4-1.5-3.1-1.5-4.9c0-2.3,0.9-4.5,2.5-6.2c1.6-1.6,3.8-2.6,6.1-2.6c1.7,0,3.4,0.5,4.8,1.5c1.4,1,2.5,2.3,3.2,3.9
		C130.1,80.9,130.3,82.6,130,84.3z M81.3,87.5c-1-1.4-1.5-3.1-1.5-4.9c0-2.3,0.9-4.5,2.5-6.2c1.3-1.3,2.9-2.1,4.6-2.4
		c0.2,0,0.5-0.1,0.7-0.1c0.3,0,0.5,0,0.8,0c0.4,0,0.8,0,1.2,0.1c0.2,0,0.5,0.1,0.7,0.1c0.1,0,0.3,0.1,0.4,0.1
		c0.3,0.1,0.6,0.2,0.9,0.3c0,0,0.1,0,0.1,0c0.3,0.1,0.6,0.3,0.9,0.5l0,0c0.2,0.1,0.4,0.2,0.6,0.4c1.4,1,2.5,2.3,3.2,3.9
		c0.7,1.6,0.8,3.4,0.5,5.1c-0.3,1.7-1.2,3.3-2.4,4.5c-0.6,0.6-1.3,1.1-2,1.5l0,0c-0.4,0.2-0.8,0.4-1.2,0.5c0,0,0,0,0,0
		c-0.4,0.2-0.8,0.3-1.3,0.4c-0.3,0.1-0.7,0.1-1,0.1c-0.2,0-0.3,0-0.5,0c-0.1,0-0.3,0-0.4,0c-0.4,0-0.9-0.1-1.3-0.1
		c-0.6-0.1-1.2-0.3-1.8-0.5C83.7,90.1,82.3,88.9,81.3,87.5z M167.5,132.2c0,1.1-0.2,2.1-0.6,3c-0.4,1-1,1.8-1.7,2.6
		c-0.7,0.7-1.6,1.3-2.5,1.7c-0.9,0.4-1.9,0.6-2.9,0.6l-0.1,0h-14.2h-5.7v5.7v8.6l-11.5-12.5l-1.7-1.8h-2.5h-23.5l-0.1,0l0,0
		c-1,0-2-0.2-2.9-0.6c-0.9-0.4-1.8-1-2.5-1.7c-0.7-0.7-1.3-1.6-1.7-2.6c-0.4-1-0.6-2-0.6-3v-5.1h44c1.8,0,3.5-0.3,5.2-1
		c1.6-0.7,3.1-1.7,4.4-2.9c1.3-1.3,2.3-2.7,2.9-4.4c0.7-1.6,1-3.4,1-5.2v-51h9.5l0.1,0c1,0,2,0.2,2.9,0.6c0.9,0.4,1.8,1,2.5,1.7
		c0.7,0.7,1.3,1.6,1.7,2.6c0.4,1,0.6,2,0.6,3V132.2z"/>
</svg>