<svg width="263" height="263" viewBox="0 0 263 263" fill="none" xmlns="http://www.w3.org/2000/svg"
    xmlns:xlink="http://www.w3.org/1999/xlink">
   <g id="XMLID_1_">
  <path fill="white"  d="M151 135.8L156.3 137.2L156.3 123.1L151 122.9z" />
  <path fill="white"  d="M142.1 133.3L147.3 134.7L147.3 122.7L142.1 122.5z" />
  <path fill="white"  d="M179.3 124.2L179.3 143.7L186 145.6L185.1 124.4z" />
  <path fill="white"  d="M193.3,116.8l-0.4-1.1l-0.9-0.7c-1-0.9-2.5-1.4-7.8-2.2c-0.3,0-0.7-0.1-1-0.1		c-1.4-4.8-3.6-9.3-6.6-13.3c-2.4-3.3-5.3-6.1-8.5-8.6l35.1-79.4c0,0-37.4,14.1-58.5,32.4c0,0-1.7-1.7-4-4.3l0,0		c0,0-4.9,9.7-6.5,14.9c0,0,7.6-1.8,9.9-1.2c0,0-5.9,6.5-7.5,26.8c-0.6,0-1.2,0-1.7,0.1c-3.2,0.2-6.3,0.8-9.4,1.6		c1.1-6.7,2.9-15.3,4.5-17.6l-7.6,1c0,0-1.2-14.4,11.2-34.4c-3.8-5.2-7.2-11-7.5-15.6c0,0-12.9,42.2-14.7,49.3		c0,0-17.7-8.4-24.7-27.7c0,0-12.9,39.2-0.8,53.7c0,0-30.4,5.4-40.8,4c0,0,33,26.1,33.6,27.5c0.6,1.4-16.1,10.3-23.1,26.7		c0,0,24.2-6.1,35.8-5.3c2,5,4.8,9.7,8.4,13.9c1.7,1.9,3.6,3.6,5.3,5.6c0.1,0.1,0.1,0.2,0.2,0.3c0.2,0.2,0.4,0.5,0.5,0.7		c0.4,0.6,0.8,1.2,1.2,1.9c0.4,0.7,0.8,1.4,1.2,2.1c0.2,0.4,0.4,0.8,0.6,1.2c0.1,0.2,0.2,0.4,0.3,0.6c0,0.1,0.2,0.6,0.3,0.6		c3.5,8.4,3.2,19.2-4,25.6c-1.8,1.6-4,2.7-6,3.9c-2.7,1.6-5.4,3.2-8.2,4.8c-0.8,0.5-1.6,0.9-2.5,1.4c-1,0.6-1.3,1.5-1.3,2.7		c0,2.9,0,5.8,0,8.7c0,0.2,0,0.5,0,0.7c-2.3,1.1-4.5,2.1-6.8,3.2c-0.7,0.3-1.1,1.2-1.1,1.9c0,2.1,0,4.1,0,6.2c0,1,0.7,1.9,1.7,2.2		c5.9,1.9,11.7,3.7,17.6,5.6c9.3,3,18.7,6,28,9c2.1,0.7,4.2,1.5,6.4,2c0.7,0.2,1.3,0,2-0.2c1-0.3,2.1-0.7,3.1-1		c8.8-2.9,17.7-5.7,26.5-8.6c6.9-2.2,13.9-4.4,20.8-6.7c0.1,0,0.2-0.1,0.3-0.1c0.9-0.3,1.7-1.1,1.7-2.2c0-2.1,0-4.1,0-6.2		c0-0.8-0.4-1.6-1.1-2c-1.7-0.8-3.5-1.7-5.2-2.5c-0.5-0.2-1-0.5-1.5-0.8c0-3.3,0-6.6-0.1-9.9c0-0.8-0.4-1.6-1.1-2		c-2.5-1.3-5-2.7-7.5-4.1c-2.1-1.2-4.2-2.5-6.2-3.9c-1.9-1.3-3.2-2.2-4.8-3.8c-0.1-0.1-0.2-0.3-0.4-0.4c0.5,0.4,0.1,0.1-0.1-0.2		c-0.2-0.4-0.5-0.8-0.6-1.2c0,0.1-0.2-0.4-0.2-0.6c-0.1-0.3-0.2-0.6-0.3-0.9c-0.1-0.3-0.1-0.6-0.2-1c0,0,0-0.1,0-0.1		c0,0,0-0.1,0-0.1c0-0.2,0-0.4,0-0.5c-0.2-4,1.4-7.7,3.6-11.2c0.2-0.3,0.6-0.8,0.6-0.8s5.8,1.3,8.9,2c1.5,0.3,3,0.7,4.6,1		c1.3,0.3,2.3-0.4,2.8-1.6c2.3-6.3,3.9-13,4.8-19.7c4.2,1.1,6.9,1.7,7,1.7l3.7,0.9l1.1-3.7c2.3-7.9,2.8-17.2,1.3-27.5		C195.1,122.4,193.4,117,193.3,116.8z M182.8,224.2c0,1,0,2.1,0,3.1c-5.3,1.7-10.5,3.4-15.8,5.1c-9.2,3-18.4,6-27.6,8.9		c-1.9,0.6-3.9,1.3-5.8,1.9c-5.7-1.8-11.3-3.6-17-5.4c-9.4-3-18.7-6-28.1-9c-1.6-0.5-3.2-1-4.7-1.5c0-1,0-2.1,0-3.1		c1.9-0.9,3.8-1.8,5.7-2.7c4.7,1.5,9.5,3,14.2,4.5c7.9,2.5,15.8,5,23.8,7.6c1.8,0.6,3.6,1.2,5.4,1.7c1.4,0.4,3.2-0.6,4.4-1		c7.5-2.4,15-4.8,22.5-7.2c5.8-1.9,11.6-3.7,17.4-5.6C179.1,222.4,181,223.3,182.8,224.2z M174.7,175.1c-3.5-0.8-6.9-1.5-10.4-2.3		c-6.6-1.5-13.2-3-19.8-4.4c-1.5-0.3-12.3-3-12.3-3l24,12.5c-1.9,3.5-3.1,7.3-2.8,11.3c0.2,2.9,1.1,5.9,3.2,8		c3.4,3.3,7.7,5.8,11.7,8.2c2.2,1.3,4.4,2.5,6.6,3.7c0,2.8,0,5.6,0,8.4c-2,0.6-4,1.3-6.1,2c-9.5,3-19,6.1-28.5,9.1		c-2.3,0.7-4.6,1.5-6.9,2.2c-4.8-1.5-9.6-3-14.3-4.6c-7.9-2.5-15.9-5-23.8-7.6c-1.3-0.4-2.5-0.8-3.8-1.2c0-2.8,0-5.7,0-8.5		c3.5-2.1,7-4.1,10.6-6.2c2-1.2,4.1-2.3,5.9-3.9c3.7-3.2,6.1-7.6,7.1-12.3c1.7-8-0.1-16.3-4.3-23.3c-1.1-1.8-2.3-3.5-3.7-5.1		c-0.6-0.7-1.4-1.3-2.1-2c-1.5-1.5-2.9-3.1-4.2-4.8c-5.3-7.2-8.3-15.9-8.5-24.9c-0.1-4,0.2-8.3,1.3-12.2c0.2-0.6,0.4-1.1,0.6-1.7		c0,0,0-0.1,0.1-0.2c0-0.1,0.1-0.2,0.1-0.2c0.2-0.4,0.3-0.7,0.5-1c0.6-1.3,1.3-2.5,2.1-3.7c1.7-2.7,3.5-4.8,5.9-7.3		c2.6-2.6,5.2-4.8,8-6.8c6.4-4.4,13.2-7.4,20.9-8.6c8.1-1.2,16.9,0.2,24.5,3.9c8.7,4.3,16.2,10.8,20.4,19.6c0.4,0.8,0.7,1.7,1.1,2.5		c-11.3-1.2-22.7-1.9-34.1-2c-5.2,0-10.5,0-15.5,1.8c-4.6,1.6-9.2,4.5-11.3,9c-2.3,5-1.9,11,1,15.7c1.9,3.1,4.6,5.3,7.8,6.8		c7.6,3.6,15.9,5.9,23.9,8.2c9.3,2.7,18.6,5.1,27.9,7.5c0.3,0.1,0.7,0.2,1,0.3C177.9,163.9,176.5,169.6,174.7,175.1z M191.1,156.5		c0,0-55.9-13.4-65.5-20.3c0,0-6.5-4.4-4.4-12.7c1-4.2,5.6-7.4,12.1-8.8c1.9-0.4,5.5-0.6,9.9-0.6c16.3,0,44.5,2.4,46.4,4		C189.5,118.1,196.3,138.8,191.1,156.5z" />
  <path fill="white"  d="M169.4 140.9L175.7 142.7L175.7 124L169.4 123.7z" />
  <path fill="white"  d="M160 138.3L165.7 139.9L165.7 123.5L160 123.3z" /></g>
</svg>