<svg width="200" height="200" viewBox="0 0 200 200" fill="none" xmlns="http://www.w3.org/2000/svg">
    <path fill="white " fill-rule="evenodd" clip-rule= "evenodd" d="M51.3,49.6c4.8,3.9,6.6,3.6,15.7,3l85.4-5.1c1.8,0,0.3-1.8-0.3-2.1l-14.2-10.3c-2.7-2.1-6.3-4.5-13.3-3.9
	l-82.7,6c-3,0.3-3.6,1.8-2.4,3L51.3,49.6z M56.4,69.5v89.9c0,4.8,2.4,6.6,7.8,6.3l93.9-5.4c5.4-0.3,6-3.6,6-7.5V63.5
	c0-3.9-1.5-6-4.8-5.7l-98.1,5.7C57.6,63.8,56.4,65.6,56.4,69.5L56.4,69.5z M149,74.4c0.6,2.7,0,5.4-2.7,5.7l-4.5,0.9v66.3
	c-3.9,2.1-7.5,3.3-10.6,3.3c-4.8,0-6-1.5-9.7-6L92,98.2v44.9l9.4,2.1c0,0,0,5.4-7.6,5.4L73,151.9c-0.6-1.2,0-4.2,2.1-4.8l5.4-1.5
	V86.1L73,85.5c-0.6-2.7,0.9-6.6,5.1-6.9l22.3-1.5l30.8,47V82.5l-7.8-0.9c-0.6-3.3,1.8-5.7,4.8-6L149,74.4z M35,29.1l86-6.3
	c10.6-0.9,13.3-0.3,19.9,4.5l27.5,19.3c4.5,3.3,6,4.2,6,7.8v105.8c0,6.6-2.4,10.6-10.9,11.2l-99.9,6c-6.3,0.3-9.4-0.6-12.7-4.8
	l-20.2-26.2c-3.6-4.8-5.1-8.4-5.1-12.7V39.7C25.6,34.3,28,29.7,35,29.1z"/>
</svg>