<?xml version="1.0" encoding="utf-8"?>
<!-- Generator: Adobe Illustrator 27.0.1, SVG Export Plug-In . SVG Version: 6.00 Build 0)  -->
<svg version="1.1" id="Layer_1" xmlns="http://www.w3.org/2000/svg" xmlns:xlink="http://www.w3.org/1999/xlink" x="0px" y="0px"
	 viewBox="0 0 300 300" style="enable-background:new 0 0 300 300;" xml:space="preserve">
<g>
	<polygon points="175.2,143.7 169.1,143.5 169.1,158.3 175.2,160 	"/>
	<polygon points="158.9,155.4 164.8,157.1 164.8,143.3 158.9,143 	"/>
	<polygon points="208.3,145.2 201.7,144.9 201.7,167.5 209.3,169.6 	"/>
	<path d="M85.8,142.1c0.7,1.6-18.5,11.8-26.6,30.8c0,0,27.8-7,41.2-6.1c2.3,5.8,5.5,11.2,9.6,16c1.9,2.2,4.2,4.1,6.1,6.4
		c0.1,0.1,0.1,0.2,0.2,0.3c0.2,0.3,0.4,0.5,0.6,0.8c0.5,0.7,1,1.4,1.4,2.1c0.5,0.8,0.9,1.6,1.4,2.4c0.2,0.4,0.5,0.9,0.7,1.3
		c0.1,0.2,0.2,0.5,0.3,0.7c0,0.1,0.3,0.6,0.3,0.7c4,9.6,3.7,22.1-4.6,29.5c-2,1.8-4.6,3.1-6.9,4.5c-3.1,1.8-6.3,3.7-9.4,5.5
		c-0.9,0.5-1.9,1.1-2.8,1.6c-1.2,0.7-1.5,1.8-1.5,3.1c0,3.3,0,6.7,0,10c0,0.3,0,0.5,0,0.8c-2.6,1.2-5.2,2.4-7.8,3.7
		c-0.8,0.4-1.3,1.4-1.3,2.2c0,2.4,0,4.7,0,7.1c0,1.2,0.8,2.2,1.9,2.5c6.7,2.2,13.5,4.3,20.2,6.5c10.7,3.4,21.5,6.9,32.2,10.3
		c2.4,0.8,4.9,1.7,7.3,2.3c0.9,0.2,1.5,0,2.2-0.2c1.2-0.4,2.4-0.8,3.6-1.2c10.2-3.3,20.4-6.6,30.6-9.9c8-2.6,16-5.1,24-7.8
		c0.1,0,0.3-0.1,0.4-0.1c1.1-0.4,1.9-1.3,1.9-2.5c0-2.4,0-4.7,0-7.1c0-0.9-0.5-1.9-1.3-2.3c-2-1-4-1.9-6-2.9
		c-0.5-0.3-1.1-0.6-1.8-0.9c0-3.8,0-7.6-0.1-11.4c0-0.9-0.5-1.9-1.3-2.3c-2.9-1.5-5.8-3.1-8.6-4.8c-2.4-1.4-4.8-2.9-7.1-4.4
		c-2.2-1.5-3.7-2.5-5.5-4.4c-0.1-0.1-0.3-0.3-0.4-0.5c0.6,0.5,0.1,0.1-0.1-0.2c-0.3-0.4-0.5-0.9-0.7-1.4c0.1,0.1-0.2-0.5-0.2-0.7
		c-0.1-0.3-0.2-0.7-0.3-1c-0.1-0.4-0.2-0.7-0.2-1.1c0,0,0-0.1,0-0.1c0,0,0-0.1,0-0.1c0-0.2,0-0.4,0-0.6c-0.3-4.6,1.6-8.9,4.1-12.8
		c0.2-0.3,0.6-0.9,0.6-0.9s6.7,1.5,10.2,2.3c1.7,0.4,3.5,0.8,5.2,1.2c1.5,0.3,2.7-0.5,3.2-1.8c2.7-7.3,4.5-15,5.6-22.7
		c4.9,1.2,8,2,8,2l4.3,1l1.2-4.2c2.7-9.1,3.2-19.7,1.5-31.7c-1.3-8.8-3.3-15-3.4-15.3l-0.4-1.3l-1-0.8c-1.2-1-2.9-1.7-8.9-2.5
		c-0.4-0.1-0.8-0.1-1.1-0.2c-1.7-5.5-4.2-10.7-7.6-15.3c-2.8-3.8-6.1-7-9.8-9.9l40.4-91.4c0,0-43,16.2-67.3,37.2c0,0-1.9-1.9-4.6-5
		l0,0c0,0-5.6,11.2-7.5,17.2c0,0,8.8-2.1,11.3-1.4c0,0-6.8,7.5-8.6,30.8c-0.7,0-1.3,0.1-2,0.1c-3.7,0.3-7.3,0.9-10.8,1.9
		c1.3-7.7,3.3-17.6,5.2-20.3l-8.8,1.2c0,0-1.4-16.6,12.8-39.6c-4.4-6-8.2-12.7-8.6-17.9c0,0-14.8,48.6-16.9,56.7
		c0,0-20.4-9.7-28.5-31.9c0,0-14.8,45.1-0.9,61.8c0,0-34.9,6.2-47,4.6C47.1,110.4,85.1,140.5,85.8,142.1z M205.7,260.1
		c0,1.2,0,2.4,0,3.6c-6.1,2-12.1,3.9-18.2,5.9c-10.6,3.4-21.2,6.9-31.8,10.3c-2.2,0.7-4.5,1.4-6.7,2.2c-6.5-2.1-13-4.2-19.5-6.3
		c-10.8-3.5-21.5-6.9-32.3-10.4c-1.8-0.6-3.6-1.2-5.5-1.8c0-1.2,0-2.4,0-3.6c2.2-1,4.4-2.1,6.5-3.1c5.5,1.7,10.9,3.5,16.4,5.2
		c9.1,2.9,18.2,5.8,27.3,8.7c2,0.7,4.1,1.4,6.2,2c1.6,0.4,3.6-0.7,5.1-1.1c8.6-2.8,17.2-5.5,25.9-8.3c6.7-2.1,13.4-4.2,20.1-6.4
		C201.4,258,203.6,259,205.7,260.1z M213.3,137.9c0,0,7.9,23.8,1.9,44.2c0,0-64.4-15.4-75.4-23.4c0,0-7.4-5-5.1-14.6
		c1.2-4.9,6.5-8.6,13.9-10.2c2.2-0.5,6.3-0.7,11.4-0.7C178.7,133.3,211.2,136.1,213.3,137.9z M103.3,133.6c0.2-0.7,0.4-1.3,0.7-2
		c0,0,0.1-0.1,0.1-0.2c0-0.1,0.1-0.2,0.1-0.2c0.2-0.4,0.4-0.8,0.6-1.2c0.7-1.5,1.5-2.9,2.4-4.3c2-3.1,4-5.5,6.8-8.4
		c2.9-3,5.9-5.5,9.2-7.8c7.3-5.1,15.2-8.5,24-9.8c9.4-1.4,19.5,0.2,28.2,4.5c10,4.9,18.6,12.5,23.5,22.6c0.5,0.9,0.9,1.9,1.2,2.9
		c-13-1.4-26.2-2.2-39.2-2.3c-6,0-12.1,0-17.9,2.1c-5.2,1.9-10.5,5.2-12.9,10.4c-2.6,5.7-2.1,12.7,1.1,18c2.2,3.6,5.3,6.1,9,7.9
		c8.7,4.1,18.3,6.8,27.5,9.4c10.7,3.1,21.4,5.9,32.1,8.6c0.4,0.1,0.8,0.2,1.2,0.3c-0.9,6.6-2.5,13.2-4.6,19.5c-4-0.9-8-1.8-11.9-2.7
		c-7.6-1.7-15.2-3.4-22.8-5.1c-1.7-0.4-14.1-3.5-14.1-3.5l27.6,14.4c-2.1,4-3.5,8.4-3.2,13c0.2,3.3,1.2,6.8,3.6,9.2
		c3.9,3.8,8.8,6.7,13.5,9.5c2.5,1.5,5,2.9,7.6,4.2c0,3.2,0,6.5,0.1,9.7c-2.3,0.7-4.6,1.5-7,2.3c-10.9,3.5-21.8,7-32.7,10.5
		c-2.6,0.8-5.3,1.7-7.9,2.5c-5.5-1.7-11-3.5-16.5-5.2c-9.1-2.9-18.3-5.8-27.4-8.7c-1.4-0.5-2.9-0.9-4.3-1.4c0-3.3,0-6.5,0-9.8
		c4.1-2.4,8.1-4.7,12.2-7.1c2.4-1.4,4.7-2.7,6.7-4.5c4.2-3.7,7-8.7,8.1-14.1c2-9.3-0.1-18.8-5-26.8c-1.2-2.1-2.7-4-4.3-5.8
		c-0.7-0.8-1.6-1.5-2.4-2.3c-1.7-1.7-3.3-3.5-4.8-5.5c-6.1-8.3-9.5-18.3-9.7-28.7C101.6,143,101.9,138,103.3,133.6z"/>
	<polygon points="197.4,144.7 190.3,144.4 190.3,164.3 197.4,166.3 	"/>
	<polygon points="186,144.2 179.4,143.9 179.4,161.2 186,163.1 	"/>
</g>
</svg>
