<?xml version="1.0" encoding="utf-8"?>
<!-- Generator: Adobe Illustrator 27.0.1, SVG Export Plug-In . SVG Version: 6.00 Build 0)  -->
<svg version="1.1" id="Layer_1" xmlns="http://www.w3.org/2000/svg" xmlns:xlink="http://www.w3.org/1999/xlink" x="0px" y="0px"
	 viewBox="0 0 64 64" style="enable-background:new 0 0 64 64;" xml:space="preserve">
<style type="text/css">
	.st0{fill:#FFFFFF;}
</style>
<g>
	<polygon class="st0" points="38.1,30.3 36.7,30.2 36.7,33.7 38.1,34.1 	"/>
	<polygon class="st0" points="34.4,33 35.8,33.4 35.8,30.2 34.4,30.1 	"/>
	<polygon class="st0" points="45.8,30.6 44.3,30.6 44.3,35.8 46,36.3 	"/>
	<path class="st0" d="M17.5,29.9c0.2,0.4-4.3,2.7-6.2,7.1c0,0,6.4-1.6,9.5-1.4c0.5,1.3,1.3,2.6,2.2,3.7c0.4,0.5,1,1,1.4,1.5
		c0,0,0,0,0.1,0.1c0,0.1,0.1,0.1,0.1,0.2c0.1,0.2,0.2,0.3,0.3,0.5c0.1,0.2,0.2,0.4,0.3,0.6c0.1,0.1,0.1,0.2,0.2,0.3
		c0,0.1,0.1,0.1,0.1,0.2c0,0,0.1,0.1,0.1,0.2c0.9,2.2,0.9,5.1-1.1,6.8c-0.5,0.4-1.1,0.7-1.6,1c-0.7,0.4-1.4,0.8-2.2,1.3
		c-0.2,0.1-0.4,0.2-0.7,0.4c-0.3,0.2-0.4,0.4-0.4,0.7c0,0.8,0,1.5,0,2.3c0,0.1,0,0.1,0,0.2c-0.6,0.3-1.2,0.6-1.8,0.8
		c-0.2,0.1-0.3,0.3-0.3,0.5c0,0.5,0,1.1,0,1.6c0,0.3,0.2,0.5,0.4,0.6c1.6,0.5,3.1,1,4.7,1.5c2.5,0.8,5,1.6,7.5,2.4
		c0.6,0.2,1.1,0.4,1.7,0.5c0.2,0,0.3,0,0.5,0c0.3-0.1,0.6-0.2,0.8-0.3c2.4-0.8,4.7-1.5,7.1-2.3c1.8-0.6,3.7-1.2,5.5-1.8
		c0,0,0.1,0,0.1,0c0.3-0.1,0.4-0.3,0.4-0.6c0-0.5,0-1.1,0-1.6c0-0.2-0.1-0.4-0.3-0.5c-0.5-0.2-0.9-0.4-1.4-0.7
		c-0.1-0.1-0.3-0.1-0.4-0.2c0-0.9,0-1.8,0-2.6c0-0.2-0.1-0.4-0.3-0.5c-0.7-0.3-1.3-0.7-2-1.1c-0.6-0.3-1.1-0.7-1.6-1
		c-0.5-0.3-0.8-0.6-1.3-1c0,0-0.1-0.1-0.1-0.1c0.1,0.1,0,0,0-0.1c-0.1-0.1-0.1-0.2-0.2-0.3c0,0,0-0.1-0.1-0.2c0-0.1,0-0.2-0.1-0.2
		c0-0.1,0-0.2-0.1-0.3c0,0,0,0,0,0c0,0,0,0,0,0c0,0,0-0.1,0-0.1c-0.1-1.1,0.4-2.1,1-3c0-0.1,0.1-0.2,0.1-0.2s1.6,0.3,2.4,0.5
		c0.4,0.1,0.8,0.2,1.2,0.3c0.3,0.1,0.6-0.1,0.7-0.4c0.6-1.7,1-3.5,1.3-5.2c1.1,0.3,1.8,0.5,1.9,0.5l1,0.2l0.3-1
		c0.6-2.1,0.7-4.6,0.3-7.3c-0.3-2-0.8-3.5-0.8-3.5l-0.1-0.3l-0.2-0.2c-0.3-0.2-0.7-0.4-2.1-0.6c-0.1,0-0.2,0-0.3,0
		c-0.4-1.3-1-2.5-1.8-3.5c-0.7-0.9-1.4-1.6-2.3-2.3l9.3-21.1c0,0-10,3.7-15.6,8.6c0,0-0.4-0.4-1.1-1.1l0,0c0,0-1.3,2.6-1.7,4
		c0,0,2-0.5,2.6-0.3c0,0-1.6,1.7-2,7.1c-0.2,0-0.3,0-0.5,0c-0.8,0.1-1.7,0.2-2.5,0.4c0.3-1.8,0.8-4.1,1.2-4.7l-2,0.3
		c0,0-0.3-3.8,3-9.2c-1-1.4-1.9-2.9-2-4.2c0,0-3.4,11.2-3.9,13.1c0,0-4.7-2.2-6.6-7.4c0,0-3.4,10.4-0.2,14.3c0,0-8.1,1.4-10.9,1.1
		C8.5,22.6,17.3,29.5,17.5,29.9z M45.2,57.2c0,0.3,0,0.6,0,0.8c-1.4,0.5-2.8,0.9-4.2,1.4c-2.5,0.8-4.9,1.6-7.4,2.4
		c-0.5,0.2-1,0.3-1.5,0.5c-1.5-0.5-3-1-4.5-1.4c-2.5-0.8-5-1.6-7.5-2.4c-0.4-0.1-0.8-0.3-1.3-0.4c0-0.3,0-0.5,0-0.8
		c0.5-0.2,1-0.5,1.5-0.7c1.3,0.4,2.5,0.8,3.8,1.2c2.1,0.7,4.2,1.3,6.3,2c0.5,0.2,0.9,0.3,1.4,0.5c0.4,0.1,0.8-0.2,1.2-0.3
		c2-0.6,4-1.3,6-1.9c1.5-0.5,3.1-1,4.6-1.5C44.2,56.7,44.7,57,45.2,57.2z M47,29c0,0,1.8,5.5,0.4,10.2c0,0-14.9-3.6-17.4-5.4
		c0,0-1.7-1.2-1.2-3.4c0.3-1.1,1.5-2,3.2-2.4c0.5-0.1,1.5-0.2,2.6-0.2C39,27.9,46.5,28.5,47,29z M21.5,27.9c0-0.2,0.1-0.3,0.2-0.5
		c0,0,0,0,0-0.1c0,0,0-0.1,0-0.1c0-0.1,0.1-0.2,0.1-0.3c0.2-0.3,0.4-0.7,0.6-1c0.5-0.7,0.9-1.3,1.6-1.9c0.7-0.7,1.4-1.3,2.1-1.8
		c1.7-1.2,3.5-2,5.6-2.3c2.2-0.3,4.5,0.1,6.5,1c2.3,1.1,4.3,2.9,5.4,5.2c0.1,0.2,0.2,0.4,0.3,0.7c-3-0.3-6.1-0.5-9.1-0.5
		c-1.4,0-2.8,0-4.1,0.5c-1.2,0.4-2.4,1.2-3,2.4c-0.6,1.3-0.5,2.9,0.3,4.2c0.5,0.8,1.2,1.4,2.1,1.8c2,1,4.2,1.6,6.4,2.2
		c2.5,0.7,4.9,1.4,7.4,2c0.1,0,0.2,0,0.3,0.1c-0.2,1.5-0.6,3.1-1.1,4.5c-0.9-0.2-1.8-0.4-2.8-0.6c-1.8-0.4-3.5-0.8-5.3-1.2
		c-0.4-0.1-3.3-0.8-3.3-0.8l6.4,3.3c-0.5,0.9-0.8,2-0.7,3c0.1,0.8,0.3,1.6,0.8,2.1c0.9,0.9,2,1.6,3.1,2.2c0.6,0.3,1.2,0.7,1.8,1
		c0,0.7,0,1.5,0,2.2c-0.5,0.2-1.1,0.4-1.6,0.5c-2.5,0.8-5.1,1.6-7.6,2.4c-0.6,0.2-1.2,0.4-1.8,0.6c-1.3-0.4-2.5-0.8-3.8-1.2
		c-2.1-0.7-4.2-1.3-6.3-2c-0.3-0.1-0.7-0.2-1-0.3c0-0.8,0-1.5,0-2.3c0.9-0.5,1.9-1.1,2.8-1.6c0.5-0.3,1.1-0.6,1.6-1
		c1-0.8,1.6-2,1.9-3.3c0.5-2.1,0-4.4-1.2-6.2c-0.3-0.5-0.6-0.9-1-1.3c-0.2-0.2-0.4-0.4-0.6-0.5c-0.4-0.4-0.8-0.8-1.1-1.3
		c-1.4-1.9-2.2-4.2-2.3-6.6C21.1,30.1,21.2,29,21.5,27.9z"/>
	<polygon class="st0" points="43.3,30.5 41.6,30.4 41.6,35 43.3,35.5 	"/>
	<polygon class="st0" points="40.7,30.4 39.1,30.3 39.1,34.3 40.7,34.8 	"/>
</g>
</svg>
